<?xml version="1.0" standalone="no"?>
<!DOCTYPE svg PUBLIC "-//W3C//DTD SVG 20010904//EN"
 "http://www.w3.org/TR/2001/REC-SVG-20010904/DTD/svg10.dtd">
<svg version="1.0" xmlns="http://www.w3.org/2000/svg"
 width="512.000000pt" height="512.000000pt" viewBox="0 0 512.000000 512.000000"
 preserveAspectRatio="xMidYMid meet">
<metadata>
Created by potrace 1.14, written by Peter Selinger 2001-2017
</metadata>
<g transform="translate(0.000000,512.000000) scale(0.100000,-0.100000)"
fill="#000000" stroke="none">
<path d="M2021 2760 c-13 -11 -31 -20 -40 -20 -19 0 -69 -51 -101 -104 -21
-34 -23 -50 -22 -139 1 -91 3 -103 29 -139 32 -47 97 -102 133 -113 14 -4 34
-14 45 -21 29 -20 104 -17 148 6 20 11 45 20 55 20 21 0 122 97 122 117 0 7 9
30 20 50 25 48 25 116 0 168 -11 22 -19 44 -20 48 0 18 -88 98 -133 122 -40
21 -61 25 -130 25 -67 -1 -86 -4 -106 -20z m284 -181 c45 -40 47 -80 6 -127
-23 -27 -37 -34 -66 -34 -85 0 -127 102 -68 164 37 39 81 38 128 -3z"/>
<path d="M2947 2554 c-62 -32 -92 -59 -130 -114 -27 -39 -32 -56 -35 -124 -4
-70 -1 -84 23 -132 30 -59 85 -111 158 -149 96 -50 205 -25 300 67 26 25 47
49 47 53 0 4 9 18 20 32 16 21 20 41 20 107 0 78 -2 84 -40 143 -29 44 -59 74
-103 103 -58 38 -66 40 -137 40 -61 0 -84 -5 -123 -26z m287 -170 c58 -51 29
-159 -44 -164 -59 -5 -68 0 -95 46 -26 44 -26 46 -9 72 49 78 95 92 148 46z"/>
</g>
</svg>
